{"title":"Hitchcock 2012 BRRip 720p x264 AAC - PRiSTiNE [P2PDL]","uid":8220272,"size":581830949,"categoryP":"video","categoryS":"hd___movies","magnet":"?xt=urn:btih:1887ed61eaa5431f6aa324413d4371df3b07d44c&amp;dn=Hitchcock+2012+BRRip+720p+x264+AAC+-+PRiSTiNE+%5BP2PDL%5D&amp;tr=udp%3A%2F%2Ftracker.openbittorrent.com%3A80&amp;tr=udp%3A%2F%2Fopen.demonii.com%3A1337&amp;tr=udp%3A%2F%2Ftracker.coppersurfer.tk%3A6969&amp;tr=udp%3A%2F%2Fexodus.desync.com%3A6969","seeders":1,"leechers":0,"uploader":"Vitamin_X","files":-1,"time":1362462236,"description":"_________________________  Visit us at _________________________\n  &lt;a href=&quot;\nhttp://p2pdl.com&quot; rel=&quot;nofollow&quot; target=&quot;_NEW&quot;&gt;\nhttp://p2pdl.com&lt;/a&gt;  ____________________________ &lt;a href=&quot; http://p2pdl.com&quot; rel=&quot;nofollow&quot; target=&quot;_NEW&quot;&gt; http://p2pdl.com&lt;/a&gt;\n\n\nHitchcock 2012 BRRip 720p x264 AAC - PRiSTiNE\n\nGenre: Biography | Drama\nPlot: A love story between influential filmmaker Alfred Hitchcock and \nwife Alma Reville during the filming of Psycho in 1959.\nDirector: Sacha Gervasi\nStars: Anthony Hopkins, Helen Mirren, Scarlett Johansson\nRated: Rated PG-13 for some violent images, sexual content and thematic material\n\nInfo: &lt;a href=&quot;\nhttp://www.imdb.com/title/tt0975645/&quot; rel=&quot;nofollow&quot; target=&quot;_NEW&quot;&gt;\nhttp://www.imdb.com/title/tt0975645/&lt;/a&gt;\n\nTrailer:\n\nGeneral\nComplete name                  : Hitchcock 2012 BRRip 720p x264 AAC - PRiSTiNE.mp4\nFormat                         : MPEG-4\nFormat profile                 : Base Media\nCodec ID                       : isom\nFile size                      : 551 MiB\nDuration                       : 1h 38mn\nOverall bit rate mode          : Variable\nOverall bit rate               : 784 Kbps\n\nSource                         : 720p.BluRay.x264-Felony (Thanks)\n\nVideo\nFormat                         : AVC\nFormat/Info                    : Advanced Video Codec\nFormat profile                 : High &lt;a class=&quot;__cf_email__&quot; href=&quot;/cdn-cgi/l/email-protection&quot; data-cfemail=&quot;e0d1d0a0acd4ced1&quot;&gt;[email&amp;#160;protected]&lt;/a&gt;&lt;script cf-hash='f9e31' type=&quot;text/javascript&quot;&gt;\n/* &lt;![CDATA[ */!function(){try{var t=&quot;currentScript&quot;in document?document.currentScript:function(){for(var t=document.getElementsByTagName(&quot;script&quot;),e=t.length;e--;)if(t[e].getAttribute(&quot;cf-hash&quot;))return t[e]}();if(t&amp;&amp;t.previousSibling){var e,r,n,i,c=t.previousSibling,a=c.getAttribute(&quot;data-cfemail&quot;);if(a){for(e=&quot;&quot;,r=parseInt(a.substr(0,2),16),n=2;a.length-n;n+=2)i=parseInt(a.substr(n,2),16)^r,e+=String.fromCharCode(i);e=document.createTextNode(e),c.parentNode.replaceChild(e,c)}}}catch(u){}}();/* ]]&gt; */&lt;/script&gt;\nFormat settings, CABAC         : Yes\nFormat settings, ReFrames      : 4 frames\nCodec ID/Info                  : Advanced Video Coding\nDuration                       : 1h 38mn\nBit rate                       : 697 Kbps\nWidth                          : 1 264 pixels\nHeight                         : 528 pixels\nDisplay aspect ratio           : 2.40:1\nFrame rate mode                : Constant\nFrame rate                     : 23.976 fps\nBit depth                      : 10 bits\nScan type                      : Progressive\nBits/(Pixel*Frame)             : 0.044\nStream size                    : 490 MiB (89%)\nWriting library                : x264 core 129 r2245 bc13772\n\nAudio\nFormat                         : AAC\nFormat/Info                    : Advanced Audio Codec\nDuration                       : 1h 38mn\nBit rate mode                  : Variable\nBit rate                       : 83.8 Kbps\nChannel(s)                     : 2 channels\nChannel positions              : Front: L R\nSampling rate                  : 48.0 KHz / 24.0 KHz\nStream size                    : 59.0 MiB (11%)\nLanguage                       : English\n\nSubtitle                       : No\n\nScreens: &lt;a href=&quot;\nhttp://imgr.us/images/qz81ct7jb22bus697ht.jpg&quot; rel=&quot;nofollow&quot; target=&quot;_NEW&quot;&gt;\nhttp://imgr.us/images/qz81ct7jb22bus697ht.jpg&lt;/a&gt; &lt;a href=&quot;\nhttp://imgr.us/images/huiqgm1p4unoi6cbt0xz.jpg&quot; rel=&quot;nofollow&quot; target=&quot;_NEW&quot;&gt;\nhttp://imgr.us/images/huiqgm1p4unoi6cbt0xz.jpg&lt;/a&gt; &lt;a href=&quot;\nhttp://imgr.us/images/mvgedbi4m0dddnpbv.jpg&quot; rel=&quot;nofollow&quot; target=&quot;_NEW&quot;&gt;\nhttp://imgr.us/images/mvgedbi4m0dddnpbv.jpg&lt;/a&gt; &lt;a href=&quot;\nhttp://imgr.us/images/qw8ns74n0unnx7zzopq.jpg&quot; rel=&quot;nofollow&quot; target=&quot;_NEW&quot;&gt;\nhttp://imgr.us/images/qw8ns74n0unnx7zzopq.jpg&lt;/a&gt;\n\nThumbs: &lt;a href=&quot;\nhttp://imgr.us/images/m2vwx0lufd10htmq0xn.jpg&quot; rel=&quot;nofollow&quot; target=&quot;_NEW&quot;&gt;\nhttp://imgr.us/images/m2vwx0lufd10htmq0xn.jpg&lt;/a&gt;\n----------------------------------------------------------------------------------------------------\nEncoded using revolutionary 10bit encoding, which enables us to provide you more crispier \nand sharper images at small sizes, just make sure you follow our instructions without a fault.\nRecommend to you to use latest version of VLC player. Install K-Lite Codec Pack or shark007 codecs\nin case of any kind of problem in playback (For non-VLC Media Player users). Alternatively, install\nCore AVC codecs, the fastest decoder that there is coupled with Community Center Codec Pack and play\non Windows Media Player Classic. Check sample to be sure.\nEnjoy!","torrent":{"xt":"urn:btih:1887ed61eaa5431f6aa324413d4371df3b07d44c","amp;dn":"Hitchcock+2012+BRRip+720p+x264+AAC+-+PRiSTiNE+%5BP2PDL%5D","amp;tr":["udp%3A%2F%2Ftracker.openbittorrent.com%3A80","udp%3A%2F%2Fopen.demonii.com%3A1337","udp%3A%2F%2Ftracker.coppersurfer.tk%3A6969","udp%3A%2F%2Fexodus.desync.com%3A6969"],"infoHash":"1887ed61eaa5431f6aa324413d4371df3b07d44c","infoHashBuffer":{"type":"Buffer","data":[24,135,237,97,234,165,67,31,106,163,36,65,61,67,113,223,59,7,212,76]},"announce":[],"urlList":[]}}